<svg xmlns="http://www.w3.org/2000/svg" viewBox="0 0 180 180" width="180" height="180">
  <defs>
    <linearGradient id="atg" x1="0%" y1="0%" x2="100%" y2="100%">
      <stop offset="0%" style="stop-color:#F08B1D"/>
      <stop offset="100%" style="stop-color:#D97A16"/>
    </linearGradient>
    <clipPath id="atc">
      <circle cx="90" cy="90" r="80"/>
    </clipPath>
  </defs>
  <!-- Background rounded rect -->
  <rect width="180" height="180" rx="40" fill="#FFF5EB"/>
  <!-- Globe icon centered -->
  <circle cx="90" cy="90" r="68" fill="url(#atg)"/>
  <ellipse cx="90" cy="90" rx="34" ry="68" fill="none" stroke="rgba(255,255,255,0.4)" stroke-width="2" clip-path="url(#atc)"/>
  <ellipse cx="90" cy="90" rx="68" ry="26" fill="none" stroke="rgba(255,255,255,0.4)" stroke-width="2"/>
  <ellipse cx="90" cy="90" rx="68" ry="48" fill="none" stroke="rgba(255,255,255,0.25)" stroke-width="1.5"/>
  <line x1="90" y1="22" x2="90" y2="158" stroke="rgba(255,255,255,0.4)" stroke-width="2"/>
  <line x1="22" y1="90" x2="158" y2="90" stroke="rgba(255,255,255,0.4)" stroke-width="2"/>
  <!-- Heart -->
  <g transform="translate(90, 54) scale(2.5)">
    <path d="M9 5C9 2.8 7.4 1 5.5 1C4.25 1 3.17 1.72 2.5 2.82C1.83 1.72 0.75 1 -0.5 1C-2.4 1 -4 2.8 -4 5C-4 7.6 -1.5 10 2.5 14C6.5 10 9 7.6 9 5Z" fill="white" opacity="0.95"/>
  </g>
</svg>
