<svg xmlns="http://www.w3.org/2000/svg" viewBox="0 0 32 32" width="32" height="32">
  <defs>
    <linearGradient id="fg" x1="0%" y1="0%" x2="100%" y2="100%">
      <stop offset="0%" style="stop-color:#F08B1D"/>
      <stop offset="100%" style="stop-color:#D97A16"/>
    </linearGradient>
    <clipPath id="fc">
      <circle cx="16" cy="16" r="14"/>
    </clipPath>
  </defs>
  <circle cx="16" cy="16" r="14" fill="url(#fg)"/>
  <ellipse cx="16" cy="16" rx="7" ry="14" fill="none" stroke="rgba(255,255,255,0.4)" stroke-width="1" clip-path="url(#fc)"/>
  <ellipse cx="16" cy="16" rx="14" ry="5.5" fill="none" stroke="rgba(255,255,255,0.4)" stroke-width="1"/>
  <line x1="16" y1="2" x2="16" y2="30" stroke="rgba(255,255,255,0.4)" stroke-width="1"/>
  <line x1="2" y1="16" x2="30" y2="16" stroke="rgba(255,255,255,0.4)" stroke-width="1"/>
  <g transform="translate(16, 8) scale(0.5)">
    <path d="M9 5C9 2.8 7.4 1 5.5 1C4.25 1 3.17 1.72 2.5 2.82C1.83 1.72 0.75 1 -0.5 1C-2.4 1 -4 2.8 -4 5C-4 7.6 -1.5 10 2.5 14C6.5 10 9 7.6 9 5Z" fill="white"/>
  </g>
</svg>
