<svg xmlns="http://www.w3.org/2000/svg" viewBox="0 0 80 80" width="80" height="80" role="img" aria-label="GlobalGiving icon (white)">
  <defs>
    <clipPath id="iconCircleW">
      <circle cx="40" cy="40" r="36"/>
    </clipPath>
  </defs>

  <circle cx="40" cy="40" r="36" fill="rgba(255,255,255,0.15)" stroke="white" stroke-width="2"/>
  <ellipse cx="40" cy="40" rx="18" ry="36" fill="none" stroke="rgba(255,255,255,0.55)" stroke-width="1.5" clip-path="url(#iconCircleW)"/>
  <ellipse cx="40" cy="40" rx="36" ry="14" fill="none" stroke="rgba(255,255,255,0.55)" stroke-width="1.5"/>
  <ellipse cx="40" cy="40" rx="36" ry="26" fill="none" stroke="rgba(255,255,255,0.35)" stroke-width="1.2"/>
  <line x1="40" y1="4" x2="40" y2="76" stroke="rgba(255,255,255,0.55)" stroke-width="1.5"/>
  <line x1="4" y1="40" x2="76" y2="40" stroke="rgba(255,255,255,0.55)" stroke-width="1.5"/>

  <g transform="translate(40, 22) scale(1.1)">
    <path d="M9 5C9 2.8 7.4 1 5.5 1C4.25 1 3.17 1.72 2.5 2.82C1.83 1.72 0.75 1 -0.5 1C-2.4 1 -4 2.8 -4 5C-4 7.6 -1.5 10 2.5 14C6.5 10 9 7.6 9 5Z" fill="white" opacity="0.9"/>
  </g>
</svg>
